<?xml version="1.0" encoding="UTF-8"?>
<svg id="_圖層_1" data-name="圖層 1" xmlns="http://www.w3.org/2000/svg" viewBox="0 0 841.89 508.96">
  <defs>
    <style>
      .cls-1 {
        fill: #00558d;
      }
    </style>
  </defs>
  <path id="path1" class="cls-1" d="m420.94,0C188.47,0,0,113.85,0,254.48s188.47,254.48,420.94,254.48,420.94-113.85,420.94-254.48C842.84,113.85,653.42,0,420.94,0Zm249.7,306.14c-17.22-3.83-42.09-28.7-72.71-34.44-31.57-4.78-54.53-1.91-68.88,25.83-14.35,27.74-32.53,88.02-38.27,97.58-4.78,9.57-44.96,34.44-88.97,1.91-8.61-5.74-24.87-33.48-17.22-66.01,8.61-31.57,48.79-32.53,52.62-8.61-8.61-1.91-26.79.96-18.18,20.09,8.61,19.13,40.18,13.39,48.79-4.78,8.61-18.18,8.61-35.4-6.7-48.79-15.31-13.39-31.57-24.87-52.62-19.13-21.05,5.74-46.88,26.79-62.18,35.4-15.31,8.61-55.49,18.18-83.23,5.74-27.74-12.44-61.23-48.79-88.97-58.36-28.7-9.57-44.01-19.13-66.97-13.39-23.92,7.65-45.92,14.35-45.92,6.7,0-4.78,45.92-43.05,103.32-32.53,50.7,8.61,45.92,32.53,99.5,35.4,43.05,1.91,55.49-42.09,63.14-75.58,8.61-38.27,42.09-85.15,98.54-59.31,53.57,37.31,23.92,82.28,19.13,88.97-4.78,5.74-37.31,19.13-35.4,1.91,3.83-4.78,15.31-11.48,15.31-18.18-.96-7.65-7.65-22-23.92-22s-33.48,15.31-32.53,34.44c.96,19.13,4.78,48.79,57.4,53.57,36.35.96,60.27-42.09,110.02-45.92,49.75-4.78,80.36,26.79,123.41,55.49,42.09,28.7,110.98,11.48,127.24,5.74-10.52,12.44-41.14,44.96-115.76,38.27Z"/>
</svg>